<?xml version="1.0" encoding="UTF-8"?><svg id="Capa_2" xmlns="http://www.w3.org/2000/svg" viewBox="0 0 784.05 644.69"><defs><style>.cls-1{fill:#005abb;stroke-width:0px;}</style></defs><g id="Capa_3"><circle class="cls-1" cx="390.49" cy="594.16" r="50.53"/><path class="cls-1" d="M775.83,167.47C675.17,59.48,538.87,0,392.02,0,245.18,0,108.88,59.48,8.22,167.47c-11.53,12.37-10.85,31.75,1.52,43.29,12.37,11.53,31.75,10.85,43.29-1.52C141.97,113.81,262.36,61.26,392.03,61.25c129.66,0,250.05,52.56,338.99,147.98,5.79,6.23,13.91,9.76,22.41,9.75,7.48,0,14.97-2.72,20.88-8.22,12.37-11.53,13.06-30.91,1.52-43.29Z"/><path class="cls-1" d="M663.37,293.95c-74.4-74.97-170.77-116.25-271.35-116.25-100.6,0-196.97,41.29-271.35,116.25-11.91,12.01-11.84,31.4.17,43.31,12.01,11.91,31.4,11.84,43.31-.17,62.79-63.28,143.72-98.14,227.87-98.14,84.13,0,165.05,34.85,227.87,98.14,5.74,5.8,13.57,9.06,21.74,9.05,8.09,0,15.84-3.19,21.58-8.89,12-11.92,12.08-31.31.16-43.31h0ZM540.79,420.8c-39.85-39.48-96.96-64-149.06-64h-2.25c-52.1,0-109.22,24.52-149.06,64-12.01,11.9-12.11,31.3-.2,43.31,5.75,5.81,13.58,9.08,21.76,9.07,8.07.01,15.82-3.18,21.55-8.87,28.37-28.1,69.95-46.26,105.96-46.26h2.24c36,0,77.59,18.16,105.95,46.26,12.01,11.9,31.41,11.82,43.31-.2,11.91-12.01,11.82-31.41-.2-43.31h0Z"/></g></svg>