<?xml version="1.0" encoding="UTF-8"?><svg id="Capa_2" xmlns="http://www.w3.org/2000/svg" xmlns:xlink="http://www.w3.org/1999/xlink" viewBox="0 0 661.42 661.42"><defs><style>.cls-1{fill:#005abb;}.cls-1,.cls-2{stroke-width:0px;}.cls-2,.cls-3{fill:none;}.cls-4{clip-path:url(#clippath);}.cls-3{stroke:#005abb;stroke-miterlimit:10;stroke-width:30px;}</style><clipPath id="clippath"><rect class="cls-2" width="661.42" height="661.42"/></clipPath></defs><g id="Capa_3"><g class="cls-4"><path class="cls-3" d="M12.92,408.22h240.28v81.39h42.63c21.4,0,38.76,17.35,38.76,38.76s-17.35,38.76-38.76,38.76h-42.63v81.39"/><path class="cls-3" d="M334.59,408.22v-38.76c0-21.4,17.35-38.76,38.76-38.76s38.76,17.35,38.76,38.76v38.76h81.39v240.28H12.92V167.94h81.39v-38.76c0-21.4,17.35-38.76,38.76-38.76s38.76,17.35,38.76,38.76v38.76h81.39v81.39h-42.63c-21.4,0-38.76,17.35-38.76,38.76s17.35,38.76,38.76,38.76h42.63v81.39h81.39Z"/><path class="cls-1" d="M408.22,12.92v81.39h-38.76c-21.4,0-38.76,17.35-38.76,38.76s17.35,38.76,38.76,38.76h38.76v81.39h81.39v-42.63c0-21.4,17.35-38.76,38.76-38.76s38.76,17.35,38.76,38.76v42.63h81.39V12.92h-240.28Z"/><path class="cls-3" d="M408.22,12.92v81.39h-38.76c-21.4,0-38.76,17.35-38.76,38.76s17.35,38.76,38.76,38.76h38.76v81.39h81.39v-42.63c0-21.4,17.35-38.76,38.76-38.76s38.76,17.35,38.76,38.76v42.63h81.39V12.92h-240.28Z"/></g></g></svg>