<?xml version="1.0" encoding="UTF-8"?><svg id="Capa_2" xmlns="http://www.w3.org/2000/svg" viewBox="0 0 601.96 666.73"><defs><style>.cls-1{fill:none;stroke:#005abb;stroke-miterlimit:10;stroke-width:39px;}</style></defs><g id="Capa_3"><path class="cls-1" d="M358.71,553.46h103.59c28.77,0,52.09-23.32,52.09-52.09v-65.12h42c17.78,0,30.33-17.42,24.71-34.28l-40.67-122c0-148.49-124.25-267.96-274.46-260.1C127.88,27.09,17.68,145.22,19.52,283.49c.54,40.75,10.47,79.22,27.69,113.38,33.31,66.06,50.42,139.08,50.42,213.07v37.28h260.47l.6-93.77Z"/><path class="cls-1" d="M279.97,162.76v182.33c4.83-4.6,28.37-26.05,65.12-26.05,6.67,0,38.51.71,65.12,26.05v-182.33c-4.83-4.6-28.37-26.05-65.12-26.05-6.67,0-38.51.71-65.12,26.05Z"/><path class="cls-1" d="M149.74,162.76v182.33c4.83-4.6,28.37-26.05,65.12-26.05,6.67,0,38.51.71,65.12,26.05v-182.33c-4.83-4.6-28.37-26.05-65.12-26.05-6.67,0-38.51.71-65.12,26.05Z"/></g></svg>