<?xml version="1.0" encoding="UTF-8"?><svg id="Capa_2" xmlns="http://www.w3.org/2000/svg" viewBox="0 0 180.51 180.44"><defs><style>.cls-1{fill:#fff;stroke-width:0px;}</style></defs><g id="Capa_1-2"><path class="cls-1" d="M0,84.59c.46-3.36.78-6.75,1.4-10.08C6.11,49.28,19.14,29.44,40.36,15.1,56.1,4.46,73.65-.38,92.61.05c12.97.3,25.31,3.33,36.98,9.02.31.15.6.33.94.52-4.22,5.48-11,8.97-12.29,16.64-18.57-7.68-37.17-7.89-55.64.02-14.52,6.22-25.63,16.41-33.26,30.23-15.53,28.16-9.93,62.45,13.73,84.8,22.4,21.16,57.6,24.39,84.02,8.05,26.38-16.31,42-52.16,27.11-87.22,5.82-.6,8.98-5.11,12.8-8.65,1.24-1.15,2.34-2.46,3.77-3.98,1.11,2.5,2.13,4.64,3.02,6.83,21.11,51.63-9.89,110.4-64.42,122.03-4,.85-8.11,1.21-12.17,1.81-.46.07-.9.19-1.35.29h-11.28c-.45-.1-.9-.25-1.35-.29-17.97-1.43-34.15-7.59-48.31-18.73-18.23-14.33-29.48-32.95-33.56-55.83C.77,102.38.44,99.11,0,95.87c0-3.76,0-7.52,0-11.28Z"/><path class="cls-1" d="M114.24,47.72c-4.95,4.95-9.78,9.82-14.69,14.62-.4.39-1.38.49-1.99.33-12.3-3.1-24.5,1.63-31.42,12.24-11.2,17.17-.43,40.74,19.88,43.53,17.81,2.45,33.18-11.23,32.66-29.17-.07-2.26-.7-4.51-1.01-6.77-.07-.5-.03-1.22.27-1.53,4.86-4.94,9.76-9.82,14.67-14.73,9.55,14.93,10.04,41.01-8.11,58.88-18.5,18.2-47.76,18.77-67.19,1.35-19.03-17.06-21.47-46.44-5.51-66.59,16.18-20.43,43.8-23.29,62.43-12.16Z"/><path class="cls-1" d="M153.35,55.95c-5.28-.81-9.81-1.45-14.31-2.24-1.78-.31-3,.05-4.32,1.38-13.02,13.14-26.13,26.18-39.19,39.28-2.07,2.08-4.4,3.09-7.31,2.2-4.43-1.35-6.14-6.76-3.29-10.43.43-.55.94-1.04,1.44-1.54,13.12-13.12,26.23-26.25,39.39-39.33,1-1,1.28-1.94,1.05-3.26-.69-4.11-1.29-8.23-1.98-12.33-.47-2.79.08-5.19,2.23-7.21,7.22-6.8,14.37-13.66,21.57-20.48,1.68-1.59,3.73-2.15,6.01-1.95,2.98.26,4.74,1.81,5.34,4.7.6,2.93,1.19,5.86,1.78,8.79.6,3.03,2.18,4.58,5.22,5.16,2.65.51,5.3,1,7.93,1.59,5.45,1.21,7.33,6.72,3.84,11.17-1.01,1.29-2.05,2.58-3.19,3.76-6.03,6.25-12.04,12.52-18.21,18.63-1.15,1.14-2.97,1.6-3.98,2.11Z"/></g></svg>