<?xml version="1.0" encoding="UTF-8"?><svg id="Capa_2" xmlns="http://www.w3.org/2000/svg" viewBox="0 0 833.92 642.86"><defs><style>.cls-1{fill:#005abb;stroke-width:0px;}</style></defs><g id="Capa_3"><path class="cls-1" d="M816.5,521.2h-34.7V86.82c0-47.87-38.96-86.82-86.82-86.82H138.94C91.08,0,52.12,38.96,52.12,86.82v434.38H17.42c-9.57,0-17.42,7.84-17.42,17.42v17.42c0,47.87,38.96,86.82,86.82,86.82h660.27c47.87,0,86.82-38.96,86.82-86.82v-17.42c0-9.71-7.71-17.42-17.42-17.42ZM86.82,86.82c0-28.72,23.4-52.12,52.12-52.12h556.03c28.72,0,52.12,23.4,52.12,52.12v434.38H86.82V86.82ZM747.1,608.02H86.82c-28.72,0-52.12-23.4-52.12-52.12h764.38c.07,28.72-23.16,52.05-51.88,52.12-.04,0-.07,0-.11,0h0Z"/><path class="cls-1" d="M694.98,69.4H138.94c-9.57,0-17.42,7.84-17.42,17.42v382.26c0,9.57,7.71,17.42,17.42,17.42h556.03c9.57,0,17.42-7.84,17.42-17.42V86.82c-.13-9.57-7.84-17.42-17.42-17.42ZM364.84,243.18c0-28.72,23.4-52.12,52.12-52.12s52.12,23.4,52.12,52.12-23.4,52.12-52.12,52.12-52.12-23.4-52.12-52.12ZM279.08,451.66c8.51-68.47,67.14-121.66,137.88-121.66s129.37,53.18,137.88,121.66h-275.76ZM677.56,451.66h-87.75c-6.65-67.28-51.99-123.12-113.28-145.59,17.38-16.3,27.24-39.06,27.26-62.89,0-47.87-38.96-86.82-86.82-86.82s-86.82,38.96-86.82,86.82c0,24.73,10.5,47.07,27.26,62.89-61.29,22.47-106.63,78.31-113.28,145.59h-87.75V104.24h521.2v347.42Z"/></g></svg>