<?xml version="1.0" encoding="UTF-8"?><svg id="Capa_2" xmlns="http://www.w3.org/2000/svg" viewBox="0 0 642.86 642.86"><defs><style>.cls-1{fill:#005abb;stroke-width:0px;}</style></defs><g id="Capa_3"><path class="cls-1" d="M321.43,0C144.2,0,0,144.19,0,321.43s144.2,321.43,321.43,321.43,321.43-144.19,321.43-321.43S498.66,0,321.43,0ZM321.43,595.93c-151.36,0-274.51-123.14-274.51-274.51S170.07,46.92,321.43,46.92s274.51,123.14,274.51,274.5-123.14,274.51-274.51,274.51h0Z"/><path class="cls-1" d="M430.92,321.43h-101.67v-140.77c0-12.96-10.5-23.46-23.46-23.46s-23.46,10.5-23.46,23.46v164.23c0,12.96,10.5,23.46,23.46,23.46h125.13c12.96,0,23.46-10.5,23.46-23.46s-10.5-23.46-23.46-23.46Z"/></g></svg>